<svg width="256" height="256" viewBox="0 0 256 256" fill="none" xmlns="http://www.w3.org/2000/svg">
<path d="M128 136C118.507 136 109.226 133.185 101.333 127.911C93.4391 122.636 87.2868 115.14 83.6538 106.369C80.0208 97.598 79.0702 87.9468 80.9223 78.6357C82.7744 69.3246 87.346 60.7718 94.0589 54.0589C100.772 47.346 109.325 42.7744 118.636 40.9223C127.947 39.0702 137.598 40.0208 146.369 43.6538C155.14 47.2868 162.636 53.4391 167.911 61.3327C173.185 69.2262 176 78.5065 176 88C176 100.73 170.943 112.939 161.941 121.941C152.939 130.943 140.73 136 128 136ZM128 56C121.671 56 115.484 57.8768 110.222 61.393C104.959 64.9092 100.858 69.9069 98.4359 75.7542C96.0139 81.6014 95.3802 88.0355 96.6149 94.2429C97.8496 100.45 100.897 106.152 105.373 110.627C109.848 115.103 115.55 118.15 121.757 119.385C127.965 120.62 134.399 119.986 140.246 117.564C146.093 115.142 151.091 111.041 154.607 105.778C158.123 100.516 160 94.329 160 88C160 79.5131 156.629 71.3738 150.627 65.3726C144.626 59.3714 136.487 56 128 56Z" fill="black"/>
<path d="M128 248C110.26 247.988 92.7424 244.043 76.7096 236.449C60.6769 228.854 46.5275 217.799 35.28 204.08L31.12 198.96L35.28 193.92C46.5369 180.219 60.6905 169.182 76.7228 161.605C92.755 154.028 110.267 150.098 128 150.098C145.733 150.098 163.245 154.028 179.277 161.605C195.309 169.182 209.463 180.219 220.72 193.92L224.88 198.96L220.72 204.08C209.473 217.799 195.323 228.854 179.29 236.449C163.258 244.043 145.74 247.988 128 248ZM52.08 199.04C61.8099 209.456 73.5771 217.761 86.6509 223.439C99.7248 229.117 113.826 232.047 128.08 232.047C142.334 232.047 156.435 229.117 169.509 223.439C182.583 217.761 194.35 209.456 204.08 199.04C194.35 188.624 182.583 180.319 169.509 174.641C156.435 168.963 142.334 166.033 128.08 166.033C113.826 166.033 99.7248 168.963 86.6509 174.641C73.5771 180.319 61.8099 188.624 52.08 199.04Z" fill="black"/>
<path d="M128 248C100.742 248.018 74.2899 238.756 52.9975 221.737C31.7051 204.718 16.8412 180.958 10.8523 154.366C4.86332 127.774 8.10618 99.9351 20.0471 75.4317C31.9881 50.9283 51.9155 31.2204 76.5497 19.5516C101.184 7.88277 129.057 4.94846 155.581 11.2316C182.105 17.5147 205.699 32.6409 222.481 54.1205C239.263 75.6001 248.232 102.153 247.912 129.409C247.592 156.665 238.002 183.001 220.72 204.08C209.473 217.799 195.323 228.854 179.29 236.449C163.258 244.043 145.74 247.988 128 248ZM128 24.0001C107.431 24.0001 87.3234 30.0996 70.2207 41.5272C53.118 52.9549 39.7881 69.1975 31.9165 88.201C24.045 107.205 21.9855 128.115 25.9983 148.289C30.0112 168.463 39.9162 186.995 54.4609 201.539C69.0056 216.084 87.5366 225.989 107.711 230.002C127.885 234.015 148.796 231.955 167.799 224.084C186.803 216.212 203.045 202.882 214.473 185.779C225.901 168.677 232 148.569 232 128C232 100.418 221.043 73.9648 201.539 54.461C182.035 34.9572 155.583 24.0001 128 24.0001Z" fill="black"/>
<path d="M41.44 199.04C41.44 199.04 122 289.04 204 208L214.56 199.04C214.56 199.04 146.08 128 76.56 170.64L41.44 199.04Z" fill="black"/>
<path d="M128 128C150.091 128 168 110.092 168 88.0001C168 65.9087 150.091 48.0001 128 48.0001C105.909 48.0001 88 65.9087 88 88.0001C88 110.092 105.909 128 128 128Z" fill="black"/>
</svg>
