<svg width="301" height="301" viewBox="0 0 301 301" fill="none" xmlns="http://www.w3.org/2000/svg">
<g clip-path="url(#clip0_87_621)">
<path d="M181.567 248.244C181.567 265.483 167.603 279.447 150.365 279.447C133.127 279.447 119.163 265.483 119.163 248.244C119.163 231.007 133.127 217.043 150.365 217.043C167.603 217.043 181.567 231.007 181.567 248.244ZM199.373 138.67C189.552 134.527 179.363 131.654 168.906 130.118L221.923 183.101L239.395 165.629C227.836 154.07 214.373 144.983 199.373 138.67ZM96.8466 140.641C82.9827 147.155 70.5216 156.041 59.8314 167.132L98.2495 204.281C109.408 192.722 123.672 185.406 139.206 183.001L96.8466 140.641ZM33.2733 77.0339C21.3467 84.9178 10.2224 93.971 0 104.227L37.7833 142.011C48.0728 131.721 59.5983 122.969 72.1259 115.92L33.2733 77.0339ZM232.713 58.4597C206.622 47.502 178.894 41.9232 150.365 41.9232C129.553 41.9232 109.208 44.8965 89.5975 50.7428L134.964 96.1092C140.042 95.6081 145.187 95.3745 150.364 95.3745C192.624 95.3745 232.413 111.744 262.445 141.476L300.095 103.526C280.586 84.2164 257.936 69.0495 232.713 58.4597ZM18.173 42.391L227 251.218L248.749 229.47L39.9214 20.6426L18.173 42.391Z" fill="url(#paint0_linear_87_621)"/>
</g>
<defs>
<linearGradient id="paint0_linear_87_621" x1="150.048" y1="20.6426" x2="150.048" y2="279.447" gradientUnits="userSpaceOnUse">
<stop stop-color="#A67BE0"/>
<stop offset="0.445615" stop-color="#AF99D2"/>
<stop offset="1" stop-color="#F59F86"/>
</linearGradient>
<clipPath id="clip0_87_621">
<rect width="300.096" height="300.096" fill="white"/>
</clipPath>
</defs>
</svg>
