<svg width="277" height="197" viewBox="0 0 277 197" fill="none" xmlns="http://www.w3.org/2000/svg">
<g clip-path="url(#clip0_107_64)">
<path d="M117.568 30.5875V19.9575C117.568 9.15747 108.818 0.407471 98.0178 0.407471H58.9078C48.1078 0.407471 39.3578 9.15747 39.3578 19.9575V30.5875C39.3578 32.9575 38.4178 35.2175 36.7478 36.8975C35.0778 38.5675 32.8078 39.5075 30.4378 39.5075H19.8078C9.00782 39.5075 0.257812 48.2575 0.257812 59.0575V176.387C0.257812 187.187 9.00782 195.937 19.8078 195.937C30.6078 195.937 39.3578 187.187 39.3578 176.387V48.4275C39.3578 46.0575 40.2978 43.7975 41.9678 42.1175C43.6378 40.4475 45.9078 39.5075 48.2778 39.5075H78.4678H108.658C111.028 39.5075 113.288 40.4475 114.968 42.1175C116.638 43.7875 117.578 46.0575 117.578 48.4275V78.6175V108.807C117.578 111.177 116.638 113.437 114.968 115.117C113.298 116.787 111.028 117.727 108.658 117.727H98.0278C87.2278 117.727 78.4778 126.477 78.4778 137.277C78.4778 148.087 87.2278 156.837 98.0278 156.837H108.658C111.028 156.837 113.288 157.777 114.968 159.447C116.638 161.117 117.578 163.387 117.578 165.757V176.387C117.578 187.187 126.328 195.937 137.128 195.937H137.138C147.938 195.937 156.688 187.187 156.688 176.387C156.688 165.587 147.938 156.837 137.138 156.837H126.498C124.128 156.837 121.868 155.897 120.188 154.227C118.518 152.557 117.578 150.287 117.578 147.917V126.637C117.578 124.267 118.518 122.007 120.188 120.327C121.858 118.657 124.128 117.717 126.498 117.717H137.148C147.948 117.717 156.698 108.967 156.698 98.1675V59.0575C156.698 48.2575 147.948 39.5075 137.148 39.5075H126.498C124.128 39.5075 121.868 38.5675 120.188 36.8975C118.518 35.2275 117.578 32.9575 117.578 30.5875H117.568Z" fill="black"/>
</g>
<path d="M231.016 0.267801C231.016 0.267801 243.239 11.9456 248.252 17.6769C257.01 27.6962 256.828 41.9247 248.001 51.818C242.701 57.754 236.296 63.1074 230.912 69.0172C230.646 69.2533 230.302 69.2481 230.041 69.0172C224.908 63.6952 219.53 58.5938 214.407 53.2613C204.798 43.2578 202.753 29.1237 212.274 18.0968C217.344 12.229 229.931 0.262552 229.931 0.262552C230.328 -0.0995902 230.672 -0.0785965 231.016 0.273049V0.267801ZM235.69 196.25C251.58 196.57 261.387 195.379 270.172 186.53C271.747 184.94 273.129 182.457 274.282 179.996C275.832 176.689 276.593 173.146 276.588 169.583L276.567 159.311L276.677 132.896L263.943 132.838C247.386 133.405 235.237 143.02 234.407 156.309L234.303 196.213L235.696 196.25H235.69ZM235.69 128.382C251.58 128.702 261.387 127.511 270.172 118.662C271.747 117.072 273.129 114.589 274.282 112.128C275.832 108.821 276.593 105.279 276.588 101.715L276.567 91.4438L276.677 65.0284L263.943 64.9706C247.386 65.5375 235.237 75.1526 234.407 88.4417L234.303 128.346L235.696 128.382H235.69ZM226.374 196.218L226.269 156.315C225.44 143.025 213.286 133.405 196.734 132.843L184 132.901L184.11 159.317L184.089 169.588C184.083 173.152 184.84 176.694 186.394 180.001C187.547 182.462 188.93 184.95 190.505 186.535C199.29 195.384 209.097 196.57 224.986 196.255L226.379 196.218H226.374ZM226.374 128.346L226.269 88.4417C225.44 75.1526 213.286 65.5322 196.734 64.9706L184 65.0284L184.11 91.4438L184.089 101.715C184.083 105.279 184.84 108.821 186.394 112.128C187.547 114.589 188.93 117.077 190.505 118.662C199.29 127.511 209.097 128.697 224.986 128.382L226.379 128.346H226.374Z" fill="black"/>
<defs>
<clipPath id="clip0_107_64">
<rect width="157" height="196" fill="white" transform="translate(0 0.149658)"/>
</clipPath>
</defs>
</svg>
